PathFileType	3	(X/Y/Z)	C:\Users\koon_\Desktop\																																																																															
DataRate	CameraRate	NumFrames	NumMarkers	Units	OrigDataRate	OrigDataStartFrame	OrigNumFrames																																																																											
100	100	14	27	mm	100	544	2174																																																																											
Frame#	Time	get:LFHD			get:RFHD			get:LBHD			get:RBHD			get:C7			get:T10			get:CLAV			get:STRN			get:RBAK			get:LSHO			get:LUPA			get:LELB			get:LFRA			get:LWRA			get:LWRB			get:LFIN			get:RSHO			get:RUPA			get:RELB			get:RFRA			get:RWRA			get:RWRB			get:RFIN			get:LASI			get:RASI			get:LPSI			get:RPSI		
		X1	Y1	Z1	X2	Y2	Z2	X3	Y3	Z3	X4	Y4	Z4	X5	Y5	Z5	X6	Y6	Z6	X7	Y7	Z7	X8	Y8	Z8	X9	Y9	Z9	X10	Y10	Z10	X11	Y11	Z11	X12	Y12	Z12	X13	Y13	Z13	X14	Y14	Z14	X15	Y15	Z15	X16	Y16	Z16	X17	Y17	Z17	X18	Y18	Z18	X19	Y19	Z19	X20	Y20	Z20	X21	Y21	Z21	X22	Y22	Z22	X23	Y23	Z23	X24	Y24	Z24	X25	Y25	Z25	X26	Y26	Z26	X27	Y27	Z27
544	5.43	39.735165	1456.0226	51.580948	-106.88185	1446.4395	41.392502	47.239647	1417.5347	-81.906578	-101.14513	1404.5952	-85.584801	-21.233473	1238.1299	-119.11713	-4.5393357	1039.4023	-193.15179	-8.8976259	1129.3218	64.337692	-6.0113683	967.98737	70.978722	-109.7357	1167.1671	-147.73337	152.50238	1236.4541	-46.309132	209.47913	1014.8278	-31.413504	239.92831	915.64783	-111.98708	226.78978	844.3927	-44.239929	191.83826	675.19519	-55.76841	264.00238	680.88031	-74.67263	250.90471	605.34991	-54.553493	-157.53275	1231.0619	-15.566233	-223.25012	1100.0533	-13.470347	-266.26636	899.2536	-98.711563	-225.00342	750.05975	-39.707855	-215.86569	654.30219	-49.558182	-284.40524	672.46387	-73.530563	-261.76697	590.22913	-38.98563	129.35989	798.7829	-69.089775	-168.33173	802.22705	-67.122925	36.620239	856.14832	-250.60876	-54.40509	850.92059	-254.20367
545	5.44	39.262051	1470.0703	49.072773	-107.38251	1460.6282	38.957664	46.832966	1431.5378	-84.388855	-101.57243	1418.7284	-88.247528	-21.642612	1251.0171	-120.95745	-4.3307929	1051.2266	-192.32272	-9.9492645	1144.9591	63.698292	-6.6083813	983.70691	72.313187	-110.02965	1179.8102	-149.09479	151.46265	1251.3041	-47.932076	209.26283	1030.0966	-31.682827	240.03558	930.60205	-112.1115	226.68098	859.62506	-44.00824	191.5784	690.16534	-54.876965	263.88718	695.98059	-73.295326	250.67926	620.38385	-53.346024	-158.3325	1245.9583	-18.072826	-224.82309	1115.209	-15.729621	-266.81003	913.64899	-100.29002	-224.44574	765.38019	-39.450195	-214.41879	669.48932	-48.58271	-283.14401	686.91296	-72.695992	-259.76105	605.10077	-37.380291	129.74464	811.79108	-65.601601	-168.05823	814.52216	-63.114845	36.295322	867.62897	-246.95042	-54.505016	862.25531	-250.46765
546	5.45	38.629505	1485.7767	46.601307	-107.75392	1476.5001	35.590214	46.432743	1447.3158	-86.828033	-102.02056	1434.6354	-90.966728	-22.283041	1265.5758	-123.04819	-4.3787112	1064.686	-191.4417	-10.899899	1162.4054	62.821022	-7.0217247	1001.3794	73.460037	-110.38973	1194.4143	-150.8416	150.28519	1267.8656	-50.208252	209.16415	1047.2489	-32.545532	240.08578	947.18036	-112.73254	226.27548	876.83954	-43.861366	191.17676	707.02582	-53.787544	263.60052	712.93872	-71.723465	250.29338	637.22681	-51.84856	-159.18947	1262.6317	-20.453394	-226.4093	1132.1356	-17.953472	-267.16278	929.69702	-101.62666	-223.67323	782.38251	-39.614624	-212.83662	686.40051	-47.781776	-281.82214	703.15314	-71.850471	-257.52283	621.78168	-35.730568	129.91495	826.97559	-62.077679	-167.81384	828.46448	-58.61726	35.864677	881.0141	-243.25243	-54.678883	875.2373	-246.36707
547	5.46	37.93948	1502.8805	44.094318	-108.46707	1494.002	33.240959	45.886021	1464.6266	-89.338326	-102.534	1452.0536	-93.571663	-22.93288	1281.692	-125.57378	-4.6801257	1079.699	-190.84792	-11.627248	1181.5599	61.49358	-7.3003073	1020.7535	74.288498	-110.95787	1210.5619	-152.77022	149.08115	1285.9435	-53.101871	209.24855	1065.9583	-34.080479	239.8812	965.2818	-113.69425	225.80322	895.6731	-44.119495	190.74062	725.47076	-52.761951	263.25153	731.52954	-70.208069	249.80576	655.79211	-50.198013	-159.92351	1280.7815	-23.174143	-227.84834	1150.5868	-20.02623	-267.15405	947.42346	-102.7076	-222.70049	800.93042	-39.791042	-211.3261	704.94214	-47.011784	-280.51047	720.92847	-71.004303	-255.35286	640.09332	-34.119514	129.98187	844.08472	-58.322289	-167.55948	844.01068	-53.878258	35.354805	895.95941	-239.2327	-54.899387	889.84839	-241.99728
548	5.47	37.262527	1521.0693	41.704502	-109.10403	1512.4862	30.662018	45.359436	1483.33	-91.890007	-103.11703	1470.8118	-96.096329	-23.492474	1299.0597	-128.33556	-5.2366085	1095.962	-190.24649	-12.25459	1202.0577	59.886433	-7.7037249	1041.5962	75.024002	-111.70747	1228.0288	-154.62262	147.80638	1305.3623	-56.369862	209.38977	1085.9725	-36.132442	239.44244	984.78351	-114.68633	225.08357	915.82361	-44.607529	190.14522	745.56555	-52.005775	262.83334	751.45282	-68.995728	249.27361	675.75244	-48.453678	-160.57768	1300.2813	-26.112112	-229.03857	1170.2928	-21.887131	-266.71072	966.45612	-103.52991	-221.74977	820.63477	-39.85181	-209.80931	724.71881	-46.407665	-279.23755	740.11456	-70.464912	-253.41302	659.72626	-32.698902	130.80278	863.56555	-51.795822	-167.34175	860.98871	-48.939934	34.743675	912.33978	-235.01907	-55.176914	905.95996	-237.45689
549	5.48	36.581753	1540.1274	39.444569	-109.80504	1531.7568	28.191526	44.821838	1503.0394	-94.292313	-103.65106	1490.7863	-99.007721	-24.063046	1317.4778	-131.2097	-6.0692544	1113.3926	-189.58879	-12.693108	1223.6166	57.951229	-8.0363607	1063.5835	75.782242	-112.70776	1246.5022	-156.35818	146.36325	1325.7037	-59.927357	209.35727	1107.1165	-38.377857	238.6841	1005.2906	-115.7109	224.27061	937.09399	-45.109623	189.98543	766.38757	-50.434002	262.49884	772.50085	-67.935371	248.85149	696.80103	-46.84198	-161.20612	1320.6111	-28.502611	-229.84755	1190.9298	-23.262152	-265.98724	986.67737	-104.16666	-220.82585	841.27924	-39.858131	-208.64751	745.43884	-45.716141	-278.03415	760.43188	-70.135246	-251.90315	680.32898	-31.545002	130.94374	883.24677	-48.039551	-167.09607	879.15131	-44.895851	34.061897	929.86395	-230.45755	-55.479527	923.16846	-232.49464
550	5.49	35.933445	1559.5172	37.252586	-110.18752	1551.2216	25.441328	44.277721	1523.5533	-96.792084	-104.24036	1511.3638	-101.652	-24.931368	1336.7552	-134.0367	-7.2031026	1131.9082	-189.11844	-13.129371	1245.7286	55.737469	-8.2843971	1086.2213	76.322052	-113.78307	1265.8126	-158.11224	144.86896	1346.6416	-63.709518	209.21608	1128.986	-40.747032	237.72395	1026.5676	-116.8728	223.59372	959.15167	-45.600964	189.80029	787.92474	-49.826557	262.11234	794.34955	-67.101051	248.55363	718.69006	-45.312675	-161.81512	1341.4998	-30.923634	-230.55995	1212.1556	-24.460381	-265.24393	1007.645	-104.59466	-220.00566	862.54053	-39.642578	-207.60829	766.65045	-45.082153	-276.73895	781.52753	-69.974976	-250.81947	701.63196	-30.581779	130.99728	903.62415	-45.075626	-166.7166	898.4696	-39.07869	33.47979	948.54382	-226.22157	-55.825726	941.42426	-227.5537
551	5.5	35.44627	1578.8964	35.198357	-110.75413	1571.0043	23.564068	43.781651	1544.3071	-99.258408	-104.78637	1532.2174	-104.17603	-26.111082	1356.1775	-136.91272	-8.7071562	1150.7313	-188.29668	-13.512873	1268.0652	53.18634	-8.4066048	1109.1829	77.01918	-114.97524	1285.4192	-159.8824	143.30505	1367.723	-67.615768	208.82661	1151.2679	-43.011509	236.67102	1048.172	-118.07557	222.90845	981.52765	-46.13504	189.76378	810.13257	-47.805431	261.85532	816.65326	-66.460762	248.36877	740.85016	-43.891033	-162.36407	1362.5339	-33.461864	-231.09035	1233.6238	-25.265978	-264.37418	1028.9127	-104.74089	-219.13501	884.14728	-39.462364	-206.62309	788.14386	-44.371475	-275.5759	803.00787	-69.864166	-250.12979	723.10614	-29.782476	131.1044	924.56378	-42.059372	-166.30997	918.25806	-34.651054	32.838501	967.9906	-222.17024	-56.038853	960.63251	-223.17639
552	5.51	34.97464	1597.9237	33.168221	-111.21194	1590.323	21.447426	43.314697	1564.9945	-101.59506	-105.40086	1552.9635	-106.64146	-27.585312	1375.8195	-139.58081	-10.365779	1169.8951	-187.81157	-13.92749	1290.3379	50.747673	-8.3823442	1132.0742	77.518364	-116.29788	1304.9741	-161.24287	141.72852	1388.5787	-71.596924	208.32278	1173.3672	-45.276539	235.45769	1069.7881	-119.32759	222.29401	1003.8726	-46.699051	189.95439	832.4035	-45.637348	261.75299	839.0733	-65.880394	248.30927	762.9743	-42.666027	-162.84271	1383.2085	-35.657894	-231.70796	1255.0125	-26.032108	-263.75516	1050.132	-104.98492	-218.16734	905.77618	-39.077881	-205.74339	809.36255	-43.646053	-274.45288	824.4989	-69.396294	-249.37906	744.44104	-28.932066	131.44542	945.58496	-39.052734	-165.76668	938.2605	-30.683954	32.078407	987.79468	-217.82762	-56.319473	980.2381	-218.89473
553	5.52	34.505684	1616.2795	31.174877	-111.36672	1608.8385	19.107553	42.799583	1585.2609	-103.99228	-105.90363	1573.3815	-109.31797	-29.082998	1395.2803	-142.15541	-12.014877	1189.0433	-187.80536	-14.396703	1312.1053	48.213142	-8.3859634	1154.4402	77.93821	-117.60134	1324.4905	-163.02264	140.084	1408.8542	-75.477127	207.77289	1195.0759	-47.520599	234.24208	1091.0325	-120.72768	221.83823	1025.8271	-47.380684	190.19476	854.12982	-44.604321	261.59094	861.17554	-65.491936	248.17006	784.48407	-41.245773	-163.35803	1403.4191	-38.181145	-232.47571	1275.933	-26.689167	-263.414	1070.8531	-105.10809	-217.16396	927.12805	-38.89175	-204.89294	830.12744	-42.869286	-273.36752	845.75293	-68.984261	-248.40988	765.01843	-28.144836	131.91515	966.23712	-36.445526	-165.1396	958.02911	-27.202562	31.35379	1007.8627	-214.31842	-56.556763	999.94934	-214.68628
554	5.53	34.093849	1633.6924	29.191729	-111.6866	1626.6493	17.424129	42.335678	1604.7465	-106.33762	-106.50702	1592.9167	-111.59172	-30.59482	1414.354	-144.33604	-13.719795	1207.8676	-188.04677	-14.815422	1333.061	45.964134	-8.3310003	1175.8846	78.053368	-118.98248	1343.1813	-164.24619	138.47617	1428.3207	-79.147148	207.36153	1216.0652	-49.764519	232.96991	1111.5234	-122.42718	221.30243	1047.0181	-48.284801	190.47742	875.07794	-43.268509	261.61533	882.45911	-65.163239	247.76041	805.01038	-39.915531	-163.9007	1422.702	-40.198658	-233.35193	1296.115	-27.315733	-263.34851	1090.8146	-105.17602	-216.14011	947.77411	-38.551266	-204.06841	849.86542	-42.203457	-272.14844	865.66516	-65.93882	-247.20348	784.56458	-27.416437	132.23782	986.1839	-34.045277	-164.36565	977.09387	-24.011349	30.594646	1027.0636	-210.00261	-56.791328	1019.4158	-210.76952
555	5.54	33.776306	1649.8318	27.272007	-111.95293	1643.1387	15.547759	41.831886	1623.1665	-108.62434	-107.09485	1611.3566	-113.66537	-31.905136	1432.9102	-146.16095	-15.358766	1226.1786	-188.4713	-15.077295	1352.9575	43.993118	-8.2215738	1196.1936	77.468483	-120.34001	1361.2491	-165.68477	136.87465	1446.5964	-82.613838	206.91396	1235.851	-52.004307	231.84619	1130.9357	-124.05165	220.68553	1067.1012	-49.198437	190.50537	894.8634	-42.04274	261.36893	902.38092	-64.947624	247.27719	824.50159	-38.648746	-164.54024	1440.9104	-42.040653	-234.25838	1315.2767	-27.870558	-263.61041	1109.6874	-105.2526	-215.36581	967.2384	-38.575935	-203.16229	868.47614	-41.643452	-271.64154	885.29962	-66.592171	-245.72467	802.73181	-26.772741	132.25946	1004.9611	-32.018631	-163.71046	995.27631	-21.313334	29.95579	1046.2819	-206.94928	-56.893795	1038.2817	-207.1489
556	5.55	33.530277	1664.8866	25.341316	-112.21127	1658.3934	13.718749	41.326336	1640.2245	-110.88812	-107.65578	1628.4614	-115.74097	-33.159538	1450.6379	-147.65312	-16.969963	1243.663	-189.15543	-15.315716	1371.6465	42.315399	-8.1155415	1215.0979	76.49308	-121.70334	1378.172	-166.81787	135.25145	1463.7246	-85.349945	206.44972	1254.3232	-54.112915	230.90195	1149.0148	-125.65659	220.1443	1085.7716	-50.20668	190.19713	913.32715	-41.082817	260.82556	920.55756	-64.779442	246.51096	842.75122	-37.502647	-165.17995	1457.9261	-43.232822	-235.10846	1333.0343	-28.540852	-264.22595	1127.1774	-104.92895	-214.87349	985.13141	-38.183357	-202.32336	885.46881	-41.136681	-271.02853	902.5777	-63.80006	-244.03563	819.37109	-26.238571	131.99239	1022.501	-30.393404	-162.95364	1012.4883	-19.046143	29.579613	1064.5525	-204.07489	-56.952789	1056.5502	-204.27791
557	5.56	33.311428	1679.0786	23.431938	-112.48572	1672.7836	12.038242	40.724674	1655.8977	-112.91886	-108.28175	1644.1086	-117.09109	-34.157253	1467.2452	-148.94386	-18.423157	1259.8929	-189.72614	-15.384986	1389.131	40.96756	-7.9533095	1232.5496	74.957825	-122.9376	1393.9879	-167.91963	134.21765	1479.6678	-87.890907	206.12038	1271.2435	-56.233536	230.19737	1165.5052	-127.08278	219.7606	1102.709	-51.103806	189.62555	930.0694	-40.454334	260.19684	936.86041	-64.831207	245.68019	859.38586	-36.605305	-165.98926	1473.783	-44.364895	-235.83272	1349.2	-29.127777	-265.16391	1143.0969	-104.65755	-214.68535	1001.1796	-37.516052	-201.76903	901.05548	-39.935711	-270.72864	918.19299	-62.339863	-242.41032	834.52972	-25.673716	131.41762	1038.7103	-29.392092	-162.35081	1028.6415	-17.525761	29.453915	1082.5024	-202.72636	-57.105122	1074.3531	-203.02742
